HIERARCHY
ROOT Hips
{
	OFFSET 0.000000 0.000000 0.000000
	CHANNELS 6 Xposition Yposition Zposition Zrotation Yrotation Xrotation 
	JOINT LHipJoint
	{
		OFFSET 0.000000 0.000000 0.000000
		CHANNELS 3 Zrotation Yrotation Xrotation
		JOINT LeftUpLeg
		{
			OFFSET 1.363060 -1.794630 0.839290
			CHANNELS 3 Zrotation Yrotation Xrotation
			JOINT LeftLeg
			{
				OFFSET 2.448110 -6.726130 0.000000
				CHANNELS 3 Zrotation Yrotation Xrotation
				JOINT LeftFoot
				{
					OFFSET 2.562200 -7.039590 0.000000
					CHANNELS 3 Zrotation Yrotation Xrotation
					JOINT LeftToeBase
					{
						OFFSET 0.157640 -0.433110 2.322550
						CHANNELS 3 Zrotation Yrotation Xrotation
						End Site
						{
							OFFSET 0.000000 0.000000 0.000000
						}
					}
				}
			}
		}
	}
	JOINT RHipJoint
	{
		OFFSET 0.000000 0.000000 0.000000
		CHANNELS 3 Zrotation Yrotation Xrotation
		JOINT RightUpLeg
		{
			OFFSET -1.305520 -1.794630 0.839290
			CHANNELS 3 Zrotation Yrotation Xrotation
			JOINT RightLeg
			{
				OFFSET -2.542530 -6.985550 0.000000
				CHANNELS 3 Zrotation Yrotation Xrotation
				JOINT RightFoot
				{
					OFFSET -2.568260 -7.056230 0.000000
					CHANNELS 3 Zrotation Yrotation Xrotation
					JOINT RightToeBase
					{
						OFFSET -0.164730 -0.452590 2.363150
						CHANNELS 3 Zrotation Yrotation Xrotation
						End Site
						{
							OFFSET 0.000000 0.000000 0.000000
						}
					}
				}
			}
		}
	}
}
MOTION
Frames: 11
Frame Time: 0.008333
-3.132510 16.912711 -0.008516 -165.338520 80.267694 -142.760985 -11.871878 1.069265 -2.639820 -6.446223 -0.778756 -9.348529 -1.165445 1.556309 30.619107 0.551680 2.153194 -4.248364 0.099300 -0.000000 -64.908300 6.819319 -0.023646 1.280460 7.812702 11.884879 -41.094781 2.956245 -0.639469 15.200473 0.752075 4.189920 5.673722 0.468701 0.000000 -34.607199
-3.008793 16.936229 0.000368 -165.963277 79.545188 -143.387222 -12.046462 1.082039 -2.707675 -5.894033 -0.177051 -10.238567 -1.029882 1.711926 32.245246 0.533754 1.990439 -2.668467 0.144700 -0.000000 -66.968900 6.767617 -0.075859 1.170940 8.248420 11.549986 -40.609455 3.001254 -0.637026 15.506728 0.694897 3.919744 4.866258 0.361100 -0.000000 -34.033800
-2.885663 16.958713 0.010789 -166.854054 78.759768 -144.274538 -12.211835 1.091853 -2.760522 -5.383254 0.417121 -11.211807 -0.894101 1.861320 33.932621 0.532000 1.855286 -1.079484 0.174000 0.000001 -68.389600 6.736028 -0.124412 1.059655 8.648699 11.102318 -40.106745 3.044090 -0.628050 15.700233 0.640250 3.657555 4.208462 0.269100 -0.000000 -33.538200
-2.763097 16.979965 0.021786 -167.868009 77.918396 -145.275968 -12.368417 1.096754 -2.796714 -4.909988 0.990972 -12.258776 -0.758934 2.003444 35.663827 0.548681 1.774798 0.490180 0.192199 -0.000000 -69.056700 6.719165 -0.170469 0.948892 9.023300 10.562005 -39.602097 3.085473 -0.612829 15.800187 0.587242 3.393317 3.678694 0.186700 -0.000000 -33.128800
-2.641215 16.999942 0.032464 -168.884822 77.031111 -146.269083 -12.516567 1.094354 -2.816898 -4.468544 1.538158 -13.368260 -0.625704 2.137829 37.421417 0.584801 1.774461 2.009694 0.207499 0.000000 -68.885500 6.710857 -0.215342 0.841098 9.383432 9.955416 -39.105906 3.126593 -0.591250 15.825211 0.534320 3.117781 3.243469 0.108700 0.000001 -32.811200
-2.520242 17.018760 0.042104 -169.825079 76.112493 -147.175507 -12.655568 1.082315 -2.824578 -4.055853 2.057266 -14.522507 -0.496063 2.264447 39.185437 0.640411 1.879692 3.448852 0.231000 -0.000001 -67.869400 6.705799 -0.259905 0.737560 9.737784 9.311328 -38.620266 3.168265 -0.563332 15.793079 0.479739 2.825109 2.863590 0.031700 -0.000001 -32.592800
-2.400439 17.036595 0.050160 -170.636540 75.179186 -147.945535 -12.785183 1.058419 -2.824737 -3.668411 2.552784 -15.705222 -0.371904 2.383932 40.938716 0.714412 2.110797 4.775375 0.274900 0.000001 -66.027401 6.698698 -0.305056 0.639701 10.094341 8.660230 -38.143436 3.211274 -0.528830 15.717862 0.421654 2.510782 2.500759 -0.046500 0.000000 -32.467500
-2.282078 17.053740 0.056331 -171.293790 74.248074 -148.557916 -12.905296 1.021321 -2.822454 -3.303468 3.032037 -16.900571 -0.254991 2.497343 42.667132 0.804884 2.482758 5.955596 0.350800 0.000000 -63.387900 6.685317 -0.351822 0.549395 10.458175 8.031225 -37.668947 3.255799 -0.487512 15.609616 0.358419 2.171878 2.124789 -0.126500 -0.000001 -32.422800
-2.165464 17.070465 0.060660 -171.798339 73.335948 -149.019772 -13.015262 0.970235 -2.823731 -2.961798 3.502455 -18.090568 -0.146765 2.605933 44.355877 0.909542 3.004882 6.960840 0.468200 -0.000000 -60.055000 6.663213 -0.400446 0.466967 10.830095 7.448280 -37.186716 3.301151 -0.439605 15.475095 0.288891 1.808362 1.716340 -0.207500 0.000000 -32.441400
-2.050825 17.087075 0.063384 -172.170889 72.458774 -149.358550 -13.113903 0.905410 -2.834242 -2.648570 3.969660 -19.255480 -0.047941 2.710681 45.987957 1.026423 3.681352 7.776723 0.633100 -0.000000 -56.257300 6.632256 -0.450216 0.391222 11.205629 6.927072 -36.685307 3.345783 -0.386091 15.320258 0.212852 1.424522 1.267366 -0.287100 -0.000000 -32.497400
-1.938314 17.103763 0.064937 -172.436274 71.628051 -149.604188 -13.200421 0.827887 -2.857716 -2.368435 4.435794 -20.380852 0.041114 2.812478 47.551863 1.153183 4.504729 8.390177 0.845800 0.000000 -52.173100 6.593418 -0.500439 0.321363 11.578645 6.477529 -36.155173 3.387819 -0.328044 15.146619 0.130562 1.023885 0.784169 -0.363100 -0.000000 -32.564700
